<svg enable-background="new 0 0 182 57" height="57" viewBox="0 0 182 57" width="182" xmlns="http://www.w3.org/2000/svg"><path d="m161.1 1h-15.6l-16.4 42.8h-16.7v-9.5h16.1v-12.1h-16.1v-9.2h16.9v-12h-31.1v51.3l-14.5-19c7.8-1.4 12-7.9 12-15.5-.1-11.6-8.3-16.8-19.1-16.8h-21.4v19c-3.5-11.4-14.2-19.6-26.7-19.6-15.5 0-28 12.6-28 28 0 2 .2 4 .6 5.9 1.6 3.9 5.1 8.4 13.1 8.4 14.3 0 14.3-14.3 14.3-14.3h-3.5l11-10.8 11.2 10.8h-3.7s-2.2 21.6-22.9 21.6c-9.1 0-14.2-4.2-17.1-8.8 4.6 9.1 14.1 15.3 25 15.3 12.5 0 23.2-8.2 26.7-19.6v19h14.3v-21.2h.1l13.5 21.1h56.5l3.8-9.5h19.6l3.6 9.5h15.2zm-90.2 24.6h-1.4v-13.7h1.4c4.7 0 9.9.9 9.9 6.8 0 6-5.3 6.9-9.9 6.9zm76.4 9.8 5.9-17.5h.1l5.8 17.5z"/></svg>